<?xml version="1.0" encoding="UTF-8"?>
<svg xmlns="http://www.w3.org/2000/svg" viewBox="0 0 920 560" role="img" aria-labelledby="title desc">
  <title id="title">Authentication flow</title>
  <desc id="desc">Animated authentication flow with explicit roles of useAuthCheck and useAuthGuard.</desc>
  <defs>
    <linearGradient id="bg" x1="0%" y1="0%" x2="100%" y2="100%">
      <stop offset="0%" style="stop-color:#0f172a"/>
      <stop offset="100%" style="stop-color:#1e293b"/>
    </linearGradient>
    <filter id="glow" x="-50%" y="-50%" width="200%" height="200%">
      <feGaussianBlur stdDeviation="2.5" result="b"/>
      <feMerge><feMergeNode in="b"/><feMergeNode in="SourceGraphic"/></feMerge>
    </filter>
    <style>
      .box { fill:#334155; stroke:#94a3b8; stroke-width:1.5; rx:8; animation: glow 8s ease-in-out infinite; }
      .lbl { fill:#f1f5f9; font:600 13px system-ui, sans-serif; }
      .sub { fill:#cbd5e1; font:10px ui-monospace, monospace; }
      .arr { stroke:#475569; stroke-width:2; fill:none; marker-end:url(#m); animation: line 8s ease-in-out infinite; }
      @keyframes glow { 0%,1.5%{stroke:#38bdf8;stroke-width:2.5;fill:#1e3a5f;filter:url(#glow)} 3%,100%{stroke:#94a3b8;stroke-width:1.5;fill:#334155;filter:none} }
      @keyframes line { 0%,1.5%{stroke:#38bdf8;stroke-width:2.5} 3%,100%{stroke:#475569;stroke-width:2} }
      #b1,#l1{animation-delay:0s} #b2,#l2{animation-delay:1s} #b3,#l3{animation-delay:2s} #b4,#l4{animation-delay:3s}
      #b5,#l5{animation-delay:4s} #b6,#l6{animation-delay:5s} #b7,#l7{animation-delay:6s} #b8,#l8{animation-delay:7s} #b9,#l9{animation-delay:7.5s}
    </style>
    <marker id="m" markerWidth="8" markerHeight="8" refX="6" refY="4" orient="auto">
      <polygon points="0 0, 8 4, 0 8" fill="#64748b"/>
    </marker>
  </defs>
  <rect width="100%" height="100%" fill="url(#bg)"/>
  <text x="460" y="36" text-anchor="middle" class="lbl" font-size="16">Authentication flow (React + Redux)</text>
  <text x="460" y="54" text-anchor="middle" class="sub">Guard chain: useAuthCheck -> withAuthGuard -> useAuthGuard -> ProtectedRoute</text>

  <rect id="b1" x="40" y="80" width="168" height="58" class="box"/>
  <text x="124" y="108" text-anchor="middle" class="lbl">Login page</text>
  <text x="124" y="124" text-anchor="middle" class="sub">/login or /sign-in</text>
  <path id="l1" class="arr" d="M 208 109 L 260 109"/>

  <rect id="b2" x="260" y="80" width="194" height="58" class="box"/>
  <text x="357" y="108" text-anchor="middle" class="lbl">Form validation</text>
  <text x="357" y="124" text-anchor="middle" class="sub">useValidate + authValidation</text>
  <path id="l2" class="arr" d="M 454 109 L 512 109"/>

  <rect id="b3" x="512" y="80" width="176" height="58" class="box"/>
  <text x="600" y="108" text-anchor="middle" class="lbl">submitLoginThunk</text>
  <text x="600" y="124" text-anchor="middle" class="sub">userSlice.ts</text>
  <path id="l3" class="arr" d="M 600 138 L 600 172"/>

  <rect id="b4" x="456" y="172" width="288" height="62" class="box"/>
  <text x="600" y="200" text-anchor="middle" class="lbl">API request + response</text>
  <text x="600" y="216" text-anchor="middle" class="sub">shared/api/userApi.ts</text>
  <path id="l4" class="arr" d="M 600 234 L 600 268"/>

  <rect id="b5" x="456" y="268" width="288" height="58" class="box"/>
  <text x="600" y="296" text-anchor="middle" class="lbl">Redux update</text>
  <text x="600" y="312" text-anchor="middle" class="sub">store.user = authenticated user</text>
  <path id="l5" class="arr" d="M 456 297 L 344 297"/>

  <rect id="b6" x="56" y="268" width="196" height="58" class="box"/>
  <text x="154" y="296" text-anchor="middle" class="lbl">useAuthCheck</text>
  <text x="154" y="312" text-anchor="middle" class="sub">sync user/session state</text>
  <path id="l6" class="arr" d="M 456 297 L 252 297"/>

  <rect id="b7" x="270" y="344" width="196" height="58" class="box"/>
  <text x="368" y="372" text-anchor="middle" class="lbl">withAuthGuard (HOC)</text>
  <text x="368" y="388" text-anchor="middle" class="sub">wrap route elements</text>
  <path id="l7" class="arr" d="M 154 326 L 154 373 L 270 373"/>

  <rect id="b8" x="136" y="172" width="232" height="62" class="box"/>
  <text x="252" y="200" text-anchor="middle" class="lbl">ProtectedRoute decision</text>
  <text x="252" y="216" text-anchor="middle" class="sub">allow or redirect to /login</text>
  <path id="l8" class="arr" d="M 582 344 L 582 234 L 368 234"/>

  <rect id="b9" x="484" y="344" width="196" height="58" class="box"/>
  <text x="582" y="372" text-anchor="middle" class="lbl">useAuthGuard</text>
  <text x="582" y="388" text-anchor="middle" class="sub">decide route access</text>
  <path id="l9" class="arr" d="M 466 373 L 484 373"/>

  <text x="40" y="508" class="sub">Role split: useAuthCheck syncs session data; withAuthGuard wires guard logic; useAuthGuard makes access decision.</text>
  <text x="40" y="526" class="sub">Key files: useAuthCheck.ts, withAuthGuard.tsx, ProtectedRoute/index.tsx, userSlice.ts, userApi.ts, LoginPage.tsx</text>
</svg>
