<?xml version="1.0" encoding="UTF-8"?>
<svg xmlns="http://www.w3.org/2000/svg" viewBox="0 0 920 500" role="img" aria-labelledby="title desc">
  <title id="title">Match-3 engine move pipeline</title>
  <desc id="desc">Animated flow from input to swap, resolve passes, HUD sync, and finish checks.</desc>
  <defs>
    <linearGradient id="bg" x1="0%" y1="0%" x2="100%" y2="100%">
      <stop offset="0%" style="stop-color:#0f172a"/><stop offset="100%" style="stop-color:#1e293b"/>
    </linearGradient>
    <filter id="glow" x="-50%" y="-50%" width="200%" height="200%">
      <feGaussianBlur stdDeviation="2.5" result="b"/><feMerge><feMergeNode in="b"/><feMergeNode in="SourceGraphic"/></feMerge>
    </filter>
    <style>
      .box{fill:#334155;stroke:#94a3b8;stroke-width:1.5;rx:8;animation:glow 9s ease-in-out infinite}
      .lbl{fill:#f1f5f9;font:600 13px system-ui,sans-serif}
      .sub{fill:#cbd5e1;font:10px ui-monospace,monospace}
      .arr{stroke:#475569;stroke-width:2;fill:none;marker-end:url(#m);animation:line 9s ease-in-out infinite}
      @keyframes glow{0%,1.4%{stroke:#38bdf8;stroke-width:2.5;fill:#1e3a5f;filter:url(#glow)}3%,100%{stroke:#94a3b8;stroke-width:1.5;fill:#334155;filter:none}}
      @keyframes line{0%,1.4%{stroke:#38bdf8;stroke-width:2.5}3%,100%{stroke:#475569;stroke-width:2}}
      #b1,#l1{animation-delay:0s}#b2,#l2{animation-delay:1s}#b3,#l3{animation-delay:2s}#b4,#l4{animation-delay:3s}
      #b5,#l5{animation-delay:4s}#b6,#l6{animation-delay:5s}#b7,#l7{animation-delay:6s}#b8,#l8{animation-delay:7s}#b9{animation-delay:8s}
    </style>
    <marker id="m" markerWidth="8" markerHeight="8" refX="6" refY="4" orient="auto"><polygon points="0 0,8 4,0 8" fill="#64748b"/></marker>
  </defs>
  <rect width="100%" height="100%" fill="url(#bg)"/>
  <text x="460" y="34" class="lbl" font-size="16" text-anchor="middle">Match-3 engine: one move lifecycle</text>
  <text x="460" y="52" class="sub" text-anchor="middle">Input -> swap -> resolve passes -> HUD -> end checks -> hint scheduling</text>

  <rect id="b1" x="28" y="90" width="148" height="56" class="box"/><text x="102" y="118" class="lbl" text-anchor="middle">Input</text><text x="102" y="134" class="sub" text-anchor="middle">click / drag</text>
  <path id="l1" class="arr" d="M 176 118 L 224 118"/>
  <rect id="b2" x="224" y="90" width="168" height="56" class="box"/><text x="308" y="118" class="lbl" text-anchor="middle">pickCellAt()</text><text x="308" y="134" class="sub" text-anchor="middle">renderer geometry</text>
  <path id="l2" class="arr" d="M 392 118 L 442 118"/>
  <rect id="b3" x="442" y="90" width="180" height="56" class="box"/><text x="532" y="118" class="lbl" text-anchor="middle">Validate swap</text><text x="532" y="134" class="sub" text-anchor="middle">rules + blockers</text>
  <path id="l3" class="arr" d="M 622 118 L 672 118"/>
  <rect id="b4" x="672" y="90" width="220" height="56" class="box"/><text x="782" y="118" class="lbl" text-anchor="middle">Swap animation</text><text x="782" y="134" class="sub" text-anchor="middle">set input blocked</text>

  <path id="l4" class="arr" d="M 782 146 L 782 186"/>
  <rect id="b5" x="642" y="186" width="250" height="60" class="box"/><text x="767" y="214" class="lbl" text-anchor="middle">resolveBoard()</text><text x="767" y="230" class="sub" text-anchor="middle">matches -> clear -> collapse -> refill</text>
  <path id="l5" class="arr" d="M 642 216 L 566 216"/>
  <rect id="b6" x="406" y="186" width="160" height="60" class="box"/><text x="486" y="214" class="lbl" text-anchor="middle">Pass loop</text><text x="486" y="230" class="sub" text-anchor="middle">until stable</text>
  <path id="l6" class="arr" d="M 406 216 L 330 216"/>
  <rect id="b7" x="170" y="186" width="160" height="60" class="box"/><text x="250" y="214" class="lbl" text-anchor="middle">HUD sync</text><text x="250" y="230" class="sub" text-anchor="middle">score/combo/goals</text>
  <path id="l7" class="arr" d="M 250 246 L 250 288"/>
  <rect id="b8" x="130" y="288" width="240" height="60" class="box"/><text x="250" y="316" class="lbl" text-anchor="middle">Finish conditions</text><text x="250" y="332" class="sub" text-anchor="middle">time up / goal reached</text>
  <path id="l8" class="arr" d="M 370 318 L 458 318"/>
  <rect id="b9" x="458" y="288" width="306" height="60" class="box"/><text x="611" y="316" class="lbl" text-anchor="middle">unblock input + schedule idle hint</text><text x="611" y="332" class="sub" text-anchor="middle">sessionRuntime.ts controllers</text>

  <text x="28" y="476" class="sub">Key files: bootstrap.ts, inputController.ts, resolvePipeline.ts, resolvePass.ts, gameState.ts, hudSync.ts, sessionRuntime.ts</text>
</svg>
