<?xml version="1.0" encoding="UTF-8"?>
<svg xmlns="http://www.w3.org/2000/svg" viewBox="0 0 920 480" role="img" aria-labelledby="title desc">
  <title id="title">Service Worker flow</title>
  <desc id="desc">Animated PWA flow: registration, install, cache warmup, fetch interception, offline response.</desc>
  <defs>
    <linearGradient id="bg" x1="0%" y1="0%" x2="100%" y2="100%">
      <stop offset="0%" style="stop-color:#0f172a"/>
      <stop offset="100%" style="stop-color:#1e293b"/>
    </linearGradient>
    <filter id="glow" x="-50%" y="-50%" width="200%" height="200%">
      <feGaussianBlur stdDeviation="2.5" result="b"/>
      <feMerge><feMergeNode in="b"/><feMergeNode in="SourceGraphic"/></feMerge>
    </filter>
    <style>
      .box { fill:#334155; stroke:#94a3b8; stroke-width:1.5; rx:8; animation: glow 8s ease-in-out infinite; }
      .lbl { fill:#f1f5f9; font:600 13px system-ui, sans-serif; }
      .sub { fill:#cbd5e1; font:10px ui-monospace, monospace; }
      .arr { stroke:#475569; stroke-width:2; fill:none; marker-end:url(#m); animation: line 8s ease-in-out infinite; }
      @keyframes glow { 0%,1.5%{stroke:#38bdf8;stroke-width:2.5;fill:#1e3a5f;filter:url(#glow)} 3%,100%{stroke:#94a3b8;stroke-width:1.5;fill:#334155;filter:none} }
      @keyframes line { 0%,1.5%{stroke:#38bdf8;stroke-width:2.5} 3%,100%{stroke:#475569;stroke-width:2} }
      #b1,#l1{animation-delay:0s} #b2,#l2{animation-delay:1s} #b3,#l3{animation-delay:2s} #b4,#l4{animation-delay:3s}
      #b5,#l5{animation-delay:4s} #b6,#l6{animation-delay:5s} #b7,#l7{animation-delay:6s} #b8{animation-delay:7s}
    </style>
    <marker id="m" markerWidth="8" markerHeight="8" refX="6" refY="4" orient="auto">
      <polygon points="0 0, 8 4, 0 8" fill="#64748b"/>
    </marker>
  </defs>
  <rect width="100%" height="100%" fill="url(#bg)"/>
  <text x="460" y="36" text-anchor="middle" class="lbl" font-size="16">Service Worker + offline flow</text>
  <text x="460" y="54" text-anchor="middle" class="sub">Registration, caching, fetch handling, offline fallback</text>

  <rect id="b1" x="40" y="80" width="176" height="58" class="box"/>
  <text x="128" y="108" text-anchor="middle" class="lbl">App starts</text>
  <text x="128" y="124" text-anchor="middle" class="sub">main.tsx boot</text>
  <path id="l1" class="arr" d="M 216 109 L 272 109"/>

  <rect id="b2" x="272" y="80" width="204" height="58" class="box"/>
  <text x="374" y="108" text-anchor="middle" class="lbl">SW registration</text>
  <text x="374" y="124" text-anchor="middle" class="sub">src/sw.ts + VitePWA setup</text>
  <path id="l2" class="arr" d="M 476 109 L 536 109"/>

  <rect id="b3" x="536" y="80" width="196" height="58" class="box"/>
  <text x="634" y="108" text-anchor="middle" class="lbl">install event</text>
  <text x="634" y="124" text-anchor="middle" class="sub">precache assets</text>
  <path id="l3" class="arr" d="M 634 138 L 634 172"/>

  <rect id="b4" x="474" y="172" width="320" height="62" class="box"/>
  <text x="634" y="200" text-anchor="middle" class="lbl">activate event</text>
  <text x="634" y="216" text-anchor="middle" class="sub">cleanup old caches / take control</text>
  <path id="l4" class="arr" d="M 474 203 L 350 203"/>

  <rect id="b5" x="138" y="172" width="212" height="62" class="box"/>
  <text x="244" y="200" text-anchor="middle" class="lbl">fetch request</text>
  <text x="244" y="216" text-anchor="middle" class="sub">page, API, game assets</text>
  <path id="l5" class="arr" d="M 244 234 L 244 266"/>

  <rect id="b6" x="138" y="266" width="212" height="58" class="box"/>
  <text x="244" y="294" text-anchor="middle" class="lbl">cache hit?</text>
  <text x="244" y="310" text-anchor="middle" class="sub">serve cached response</text>
  <path id="l6" class="arr" d="M 350 295 L 474 295"/>

  <rect id="b7" x="474" y="266" width="320" height="58" class="box"/>
  <text x="634" y="294" text-anchor="middle" class="lbl">cache miss -> network</text>
  <text x="634" y="310" text-anchor="middle" class="sub">success: cache + return / fail: offline fallback</text>
  <path id="l7" class="arr" d="M 634 324 L 634 356"/>

  <rect id="b8" x="474" y="356" width="320" height="58" class="box"/>
  <text x="634" y="384" text-anchor="middle" class="lbl">Offline-ready UX</text>
  <text x="634" y="400" text-anchor="middle" class="sub">app still works for cached routes/assets</text>

  <text x="40" y="448" class="sub">Key files: src/sw.ts, vite.config.ts, main.tsx; verify in DevTools Application + Network Offline</text>
</svg>
